<svg width="40" height="40" viewBox="0 0 40 40" fill="none" xmlns="http://www.w3.org/2000/svg">
<path d="M25.7143 1.42859V18.5714L35.9714 31.6286C36.471 32.2609 36.7823 33.0212 36.8694 33.8223C36.9566 34.6234 36.8161 35.4329 36.4641 36.1578C36.112 36.8827 35.5628 37.4937 34.8793 37.9206C34.1958 38.3475 33.4058 38.5731 32.6 38.5714H7.39998C6.59413 38.5731 5.80413 38.3475 5.12066 37.9206C4.43718 37.4937 3.88792 36.8827 3.53591 36.1578C3.1839 35.4329 3.0434 34.6234 3.13054 33.8223C3.21768 33.0212 3.52892 32.2609 4.02855 31.6286L14.2857 18.5714V1.42859M9.99998 1.42859H30" stroke="black" stroke-width="1.42857" stroke-linecap="round" stroke-linejoin="round"/>
</svg>
