<svg width="40" height="40" viewBox="0 0 40 40" fill="none" xmlns="http://www.w3.org/2000/svg">
<g clip-path="url(#clip0_1_129)">
<path d="M40 26.8766L34.3955 20.1698L39.7732 13.7064L32.0988 11.9692L32.6246 4.11344L24.7726 6.86703L20.5539 0L16.1028 6.70078L8.02894 3.48906L8.79361 12.1375L0.773652 13.5676L6.6863 19.4668L0 26.0619L8.87653 27.5909L7.82517 36.5915L15.8776 32.4495L19.3158 38.492V38.5746H19.3629L20.1739 40L21.0099 38.5746H21.04V38.5231L24.5087 32.6085L32.1148 36.5297L32.0205 27.9686L40 26.8766ZM27.5509 25.4209L31.1106 24.2808L34.3134 25.5523L30.4065 26.0866L27.5509 25.4209ZM23.2269 25.5462L20.2011 29.5509L17.0652 25.2724L20.3158 21.6736L23.2269 25.5462ZM26.2872 11.867V17.25L20.9491 19.1309V13.8984L26.2872 11.867ZM19.2249 13.7255V18.7805L14.6702 17.0432L14.3314 11.8229L19.2249 13.7255ZM14.1014 18.6166L19.0752 20.5139L15.6921 24.2591L10.5352 22.6701L14.1014 18.6166ZM21.6744 20.6479L26.8431 18.8268L29.7815 22.9518L24.7344 24.5688L21.6744 20.6479ZM34.7711 23.9336L31.7073 22.7173L29.5283 19.6582L32.0583 20.6869L34.7711 23.9336ZM35.9492 14.9789L32.5404 19.0759L28.5763 17.4643L31.2118 13.9066L35.9492 14.9789ZM29.8803 12.8418L28.0114 15.3648V10.6977L30.1852 8.29281L29.8803 12.8418ZM28.3019 7.84391L26.2811 10.0795L22.2401 11.6171L24.1923 9.28484L28.3019 7.84391ZM20.4823 3.96266L22.9996 8.06086L20.2148 11.3882L17.7787 8.03273L20.4823 3.96266ZM16.4366 9.08484L18.2184 11.5391L14.0856 9.93211L11.9436 7.29742L16.4366 9.08484ZM12.5322 10.7184L12.8152 15.0774L11.0288 12.9516L10.6237 8.37094L12.5322 10.7184ZM5.11828 14.9095L9.7585 14.0822L12.3936 17.2183L8.65658 18.4394L5.11828 14.9095ZM9.11306 20.0483L11.1712 19.3757L8.53573 22.3716L5.83911 23.2776L9.11306 20.0483ZM6.01117 24.9827L9.0519 23.961L12.8387 25.1279L10.3713 25.7337L6.01117 24.9827ZM11.0821 27.2775L15.4476 26.2059V30.3125L10.4258 32.8952L11.0821 27.2775ZM17.1718 30.4023V28.3L19.3158 31.2252V34.1703L17.1718 30.4023ZM21.04 31.2396L23.2269 28.4478V30.5706L21.04 34.2992V31.2396ZM24.9512 30.477V26.5281L29.8617 27.673L29.9208 33.0391L24.9512 30.477Z" fill="black"/>
</g>
<defs>
<clipPath id="clip0_1_129">
<rect width="40" height="40" fill="white"/>
</clipPath>
</defs>
</svg>
