<svg width="40" height="40" viewBox="0 0 40 40" fill="none" xmlns="http://www.w3.org/2000/svg">
<path d="M21.25 14C21.25 13.6685 21.1183 13.3505 20.8839 13.1161C20.6495 12.8817 20.3315 12.75 20 12.75C19.6685 12.75 19.3505 12.8817 19.1161 13.1161C18.8817 13.3505 18.75 13.6685 18.75 14V21.25H11.25C10.9185 21.25 10.6005 21.3817 10.3661 21.6161C10.1317 21.8505 10 22.1685 10 22.5C10 22.8315 10.1317 23.1495 10.3661 23.3839C10.6005 23.6183 10.9185 23.75 11.25 23.75H20C20.3315 23.75 20.6495 23.6183 20.8839 23.3839C21.1183 23.1495 21.25 22.8315 21.25 22.5V14Z" fill="black"/>
<path d="M16.25 2.5C16.25 2.16848 16.3817 1.85054 16.6161 1.61612C16.8505 1.3817 17.1684 1.25 17.5 1.25L22.5 1.25C22.8315 1.25 23.1494 1.3817 23.3838 1.61612C23.6183 1.85054 23.75 2.16848 23.75 2.5C23.75 2.83152 23.6183 3.14946 23.3838 3.38388C23.1494 3.6183 22.8315 3.75 22.5 3.75V5.175C25.9 5.665 28.985 7.125 31.46 9.275L31.49 9.2425L32.375 8.3575L31.49 7.475C31.2552 7.24061 31.1232 6.92259 31.123 6.59088C31.1228 6.25918 31.2543 5.94097 31.4887 5.70625C31.7231 5.47153 32.0411 5.33954 32.3728 5.3393C32.7045 5.33907 33.0227 5.47061 33.2575 5.705L36.7925 9.2425C36.9118 9.35781 37.0071 9.49574 37.0726 9.64824C37.1381 9.80075 37.1726 9.96477 37.174 10.1307C37.1755 10.2967 37.1438 10.4613 37.081 10.6149C37.0181 10.7686 36.9253 10.9081 36.808 11.0255C36.6906 11.1429 36.551 11.2357 36.3974 11.2985C36.2438 11.3614 36.0792 11.393 35.9132 11.3916C35.7472 11.3901 35.5832 11.3556 35.4307 11.2901C35.2782 11.2246 35.1403 11.1294 35.025 11.01L34.1425 10.125L33.2575 11.01L33.225 11.04C35.7704 13.9784 37.265 17.6807 37.4728 21.5627C37.6806 25.4448 36.5899 29.2855 34.3728 32.4789C32.1556 35.6722 28.9382 38.0364 25.2283 39.1984C21.5185 40.3603 17.5273 40.2539 13.8846 38.8958C10.2419 37.5378 7.15515 35.0055 5.11135 31.6985C3.06755 28.3915 2.1831 24.4981 2.59756 20.6326C3.01202 16.7672 4.7018 13.1498 7.40024 10.3513C10.0987 7.55273 13.6522 5.7324 17.5 5.1775V3.75C17.1684 3.75 16.8505 3.6183 16.6161 3.38388C16.3817 3.14946 16.25 2.83152 16.25 2.5ZM20 7.5C18.0301 7.50016 16.0796 7.88831 14.2598 8.64229C12.44 9.39626 10.7865 10.5013 9.39372 11.8943C6.58091 14.7076 5.00088 18.523 5.00121 22.5012C5.00154 26.4795 6.58221 30.2947 9.39549 33.1075C12.2088 35.9203 16.0242 37.5003 20.0025 37.5C23.9807 37.4997 27.7959 35.919 30.6087 33.1057C33.4215 30.2924 35.0015 26.477 35.0012 22.4988C35.0009 18.5205 33.4202 14.7053 30.6069 11.8925C27.7936 9.0797 23.9782 7.49967 20 7.5Z" fill="black"/>
</svg>
