<svg width="40" height="40" viewBox="0 0 40 40" fill="none" xmlns="http://www.w3.org/2000/svg">
<g clip-path="url(#clip0_1_124)">
<path d="M2.5 7.06995C4.7125 6.14495 7.885 5.14745 10.97 4.83745C14.295 4.50245 17.115 4.99495 18.75 6.71745V31.0824C16.4125 29.7574 13.45 29.5749 10.7175 29.8499C7.7675 30.1499 4.7925 31.0024 2.5 31.8774V7.06995ZM21.25 6.71745C22.885 4.99495 25.705 4.50245 29.03 4.83745C32.115 5.14745 35.2875 6.14495 37.5 7.06995V31.8774C35.205 31.0024 32.2325 30.1474 29.2825 29.8524C26.5475 29.5749 23.5875 29.7549 21.25 31.0824V6.71745ZM20 4.45745C17.5375 2.33995 13.9675 2.02495 10.7175 2.34995C6.9325 2.73245 3.1125 4.02995 0.7325 5.11245C0.514123 5.21177 0.328938 5.37183 0.199053 5.57353C0.0691667 5.77523 6.64286e-05 6.01004 0 6.24995L0 33.7499C5.7905e-05 33.9591 0.0525929 34.1649 0.152793 34.3485C0.252993 34.532 0.397654 34.6875 0.573527 34.8007C0.7494 34.9139 0.950861 34.9812 1.15946 34.9963C1.36806 35.0115 1.57712 34.974 1.7675 34.8874C3.9725 33.8874 7.525 32.6849 10.9675 32.3374C14.49 31.9824 17.4425 32.5549 19.025 34.5299C19.1421 34.6759 19.2905 34.7938 19.4593 34.8747C19.628 34.9557 19.8128 34.9977 20 34.9977C20.1872 34.9977 20.372 34.9557 20.5407 34.8747C20.7095 34.7938 20.8579 34.6759 20.975 34.5299C22.5575 32.5549 25.51 31.9824 29.03 32.3374C32.475 32.6849 36.03 33.8874 38.2325 34.8874C38.4229 34.974 38.6319 35.0115 38.8405 34.9963C39.0491 34.9812 39.2506 34.9139 39.4265 34.8007C39.6023 34.6875 39.747 34.532 39.8472 34.3485C39.9474 34.1649 39.9999 33.9591 40 33.7499V6.24995C39.9999 6.01004 39.9308 5.77523 39.8009 5.57353C39.6711 5.37183 39.4859 5.21177 39.2675 5.11245C36.8875 4.02995 33.0675 2.73245 29.2825 2.34995C26.0325 2.02245 22.4625 2.33995 20 4.45745Z" fill="black"/>
</g>
<defs>
<clipPath id="clip0_1_124">
<rect width="40" height="40" fill="white"/>
</clipPath>
</defs>
</svg>
