<svg width="40" height="40" viewBox="0 0 40 40" fill="none" xmlns="http://www.w3.org/2000/svg">
<path d="M20.0763 1.74959C18.7638 1.74959 17.5381 2.34725 16.4932 3.32592C15.4485 4.30482 14.5542 5.66811 13.8086 7.31943C13.6524 7.66537 13.5031 8.0249 13.3605 8.39576C12.9758 8.3347 12.5894 8.28452 12.2019 8.24529C11.7511 8.20037 11.3113 8.17248 10.8839 8.16248C9.60111 8.13201 8.42869 8.26209 7.40111 8.57357C6.03111 8.98897 4.90064 9.75193 4.24439 10.8884C3.58814 12.0251 3.49283 13.3856 3.81806 14.7798C4.14345 16.174 4.87681 17.6301 5.93424 19.1015C6.15611 19.4101 6.39314 19.7197 6.6433 20.0291C6.39856 20.3312 6.16243 20.6402 5.93517 20.9557C4.87767 22.427 4.14431 23.8832 3.819 25.2774C3.49369 26.6716 3.58908 28.0321 4.24533 29.1686C4.90158 30.3053 6.03205 31.0682 7.40205 31.4834C8.77213 31.8989 10.3999 31.9918 12.2028 31.8117C12.5808 31.7739 12.9669 31.7234 13.3597 31.6615C13.4991 32.0251 13.6488 32.3847 13.8086 32.7398C14.5542 34.3914 15.4485 35.7544 16.4932 36.7333C17.538 37.712 18.7639 38.3098 20.0763 38.3098C21.3887 38.3098 22.6146 37.712 23.6594 36.7333C24.7041 35.7544 25.5985 34.3913 26.344 32.7398C26.5038 32.3848 26.6535 32.0252 26.7929 31.6617C27.1853 31.7234 27.571 31.774 27.9487 31.8117C29.7517 31.9917 31.3795 31.8988 32.7495 31.4834C34.1196 31.0681 35.2501 30.3051 35.9063 29.1686C36.5626 28.0319 36.6579 26.6715 36.3327 25.2774C36.0073 23.8833 35.2738 22.4271 34.2165 20.9557C33.9892 20.6403 33.753 20.3313 33.5083 20.0291C33.7534 19.7267 33.9899 19.4175 34.2174 19.1016C35.2748 17.6302 36.0081 16.174 36.3335 14.7799C36.6588 13.3857 36.5634 12.0252 35.9071 10.8885C35.2509 9.75201 34.1204 8.98904 32.7504 8.57365C31.7229 8.26217 30.5504 8.13209 29.2678 8.16248C28.8401 8.17248 28.4002 8.20037 27.9495 8.24529C27.5713 8.28311 27.1849 8.33381 26.7919 8.39568C26.6526 8.0328 26.5032 7.67391 26.3437 7.31943C25.5981 5.66787 24.7038 4.30459 23.6591 3.32584C22.6143 2.34709 21.3884 1.74951 20.076 1.74951L20.0763 1.74959ZM20.0763 3.20951C20.9517 3.20951 21.8101 3.59412 22.6612 4.39154C23.5122 5.18881 24.325 6.39568 25.0133 7.92021C25.1252 8.16896 25.2317 8.42014 25.3325 8.67357C23.6593 9.04561 21.8872 9.61639 20.0759 10.379C18.2649 9.61654 16.4931 9.04592 14.8202 8.67389C14.9235 8.41529 15.0295 8.16326 15.1394 7.92014C15.8277 6.39553 16.6405 5.18865 17.4916 4.39123C18.3427 3.59397 19.201 3.20936 20.0765 3.20936L20.0763 3.20951ZM10.4209 9.62021C10.5618 9.61881 10.705 9.61975 10.8504 9.62303C11.2379 9.63162 11.6408 9.65662 12.0569 9.69826C12.323 9.72482 12.5949 9.75881 12.8713 9.79889C12.3567 11.4338 11.965 13.2537 11.7195 15.2036C10.1533 16.3911 8.77283 17.6406 7.61408 18.9038C7.44449 18.6893 7.27969 18.4711 7.11978 18.2493C6.14361 16.891 5.50494 15.5837 5.23986 14.4479C4.97486 13.3121 5.07111 12.3765 5.50877 11.6184C5.94642 10.8603 6.70877 10.3093 7.8247 9.97092C8.55713 9.74881 9.43408 9.62912 10.4208 9.62014L10.4209 9.62021ZM29.7309 9.62021C30.7176 9.6292 31.5945 9.74889 32.327 9.971C33.4431 10.3093 34.2051 10.8603 34.6428 11.6184C35.0805 12.3765 35.1768 13.3122 34.9118 14.4479C34.647 15.5836 34.0079 16.891 33.0319 18.2493C32.872 18.4711 32.7073 18.6894 32.5378 18.904C31.3792 17.6409 29.9991 16.3917 28.4333 15.2044C28.188 13.2542 27.7958 11.434 27.2813 9.79889C27.5573 9.75881 27.8289 9.72467 28.0948 9.69826C28.4959 9.65763 28.8983 9.6325 29.3013 9.62295C29.4445 9.6197 29.5877 9.61873 29.7309 9.62006V9.62021ZM25.8309 10.0608C26.2192 11.2669 26.5406 12.5977 26.7806 14.0218C26.0055 13.4982 25.2121 13.0022 24.402 12.5347C23.5925 12.067 22.7667 11.6281 21.9262 11.2188C23.2793 10.7145 24.5924 10.3276 25.8309 10.061V10.0608ZM14.3217 10.0611C15.56 10.3278 16.8729 10.7147 18.2256 11.2189C17.3852 11.6282 16.5594 12.0671 15.7499 12.5347C14.9401 13.002 14.147 13.4977 13.3722 14.0209C13.612 12.5972 13.9335 11.2669 14.3217 10.0611ZM20.0759 11.972C21.2639 12.4961 22.4699 13.1051 23.672 13.7992C24.8745 14.4936 26.0056 15.2336 27.0536 16.0008C27.1939 17.2919 27.2694 18.6412 27.2694 20.0297C27.2694 21.4173 27.1942 22.7661 27.0539 24.0567C26.0059 24.8237 24.875 25.5636 23.6728 26.2578C22.4705 26.9519 21.2642 27.5612 20.076 28.0853C18.8875 27.5612 17.6813 26.9519 16.4789 26.2578C15.277 25.5638 14.1466 24.8242 13.0989 24.0575C12.9587 22.7666 12.8833 21.4176 12.8833 20.0296C12.8833 18.6409 12.9587 17.2915 13.0991 16.0001C14.147 15.2332 15.2776 14.4933 16.4798 13.7992C17.682 13.1052 18.8879 12.4961 20.0759 11.9722V11.972ZM20.1746 14.1686L15.9948 16.748L20.1746 19.3277L24.3545 16.748L20.1746 14.1685V14.1686ZM11.5215 17.2259C11.4558 18.159 11.4231 19.0941 11.4233 20.0294C11.4233 20.9824 11.4569 21.9179 11.5216 22.8313C10.4083 21.9118 9.41666 20.968 8.56635 20.0287C9.41666 19.0895 10.4082 18.1456 11.5215 17.2259ZM28.6313 17.2267C29.744 18.1462 30.7354 19.0897 31.5854 20.0288C30.7354 20.9679 29.744 21.9114 28.6313 22.8307C28.6969 21.8984 28.7296 20.9641 28.7294 20.0295C28.7294 19.0761 28.6958 18.1404 28.6312 17.2267H28.6313ZM15.0531 17.8825V22.9761L19.443 25.6852V20.5919L15.0531 17.8825ZM25.292 17.8851L20.9032 20.5937V25.6847L25.2921 22.9761L25.292 17.8851ZM7.61392 21.1539C8.77283 22.4172 10.1531 23.6664 11.7192 24.8539C11.9645 26.8035 12.3564 28.6233 12.8708 30.2582C12.595 30.298 12.3235 30.3322 12.0578 30.3587C10.3935 30.5249 8.94166 30.4244 7.82564 30.0861C6.70955 29.7478 5.94752 29.1965 5.50978 28.4384C5.07213 27.6802 4.9758 26.7447 5.2408 25.609C5.5058 24.4733 6.14455 23.1658 7.12072 21.8076C7.28029 21.586 7.44468 21.3681 7.61392 21.1539ZM32.5377 21.1541C32.7101 21.3729 32.8752 21.5908 33.0309 21.8076C34.007 23.1658 34.6457 24.4732 34.9107 25.6089C35.1757 26.7446 35.0796 27.6801 34.642 28.4383C34.2042 29.1965 33.442 29.7477 32.3259 30.086C31.2099 30.4243 29.7584 30.5248 28.094 30.3587C27.8226 30.3311 27.5518 30.2976 27.2819 30.2583C27.7963 28.6229 28.1881 26.8028 28.4335 24.8528C29.9991 23.6656 31.3792 22.4167 32.5378 21.154L32.5377 21.1541ZM26.7809 26.0356C26.541 27.4595 26.2196 28.7903 25.8313 29.9963C24.5928 29.7297 23.2795 29.3426 21.9263 28.8383C22.7671 28.4288 23.5931 27.9898 24.4029 27.5221C25.2128 27.0547 26.006 26.5589 26.781 26.0356H26.7809ZM13.3719 26.0364C14.1465 26.5594 14.9392 27.055 15.7488 27.5221C16.5586 27.9898 17.3846 28.4288 18.2253 28.8383C16.8725 29.3425 15.5597 29.7295 14.3212 29.9962C13.9329 28.7904 13.6117 27.4599 13.3719 26.0364ZM20.1195 26.1028L20.1727 26.1356L20.2256 26.1028H20.1196H20.1195ZM20.0758 29.6783C21.8875 30.4408 23.6597 31.0115 25.3331 31.3835C25.2321 31.6377 25.1255 31.8895 25.0133 32.139C24.325 33.6634 23.5122 34.8702 22.6611 35.6676C21.8101 36.465 20.9517 36.8497 20.0763 36.8497C19.2009 36.8497 18.3425 36.465 17.4915 35.6676C16.6405 34.8703 15.8277 33.6634 15.1394 32.1389C15.0272 31.8894 14.9206 31.6376 14.8195 31.3834C16.4926 31.0114 18.2646 30.4408 20.076 29.6783H20.0758Z" fill="black"/>
</svg>
