<svg width="45" height="41" viewBox="0 0 45 41" fill="none" xmlns="http://www.w3.org/2000/svg">
<path d="M34.7607 17.6765C35.3613 18.8154 35.8081 20.0017 36.1011 21.2355C36.394 22.4693 36.5479 23.7427 36.5625 25.0556V27.4994L22.5 35.1157L8.4375 27.4994C8.4375 26.5503 8.44482 25.6645 8.45947 24.842C8.47412 24.0195 8.54004 23.2207 8.65723 22.4456C8.77441 21.6705 8.9502 20.8954 9.18457 20.1204C9.41895 19.3453 9.77051 18.5307 10.2393 17.6765L5.625 15.1852V29.1128C6.0498 29.271 6.43066 29.4925 6.76758 29.7772C7.10449 30.0619 7.40479 30.3941 7.66846 30.7737C7.93213 31.1534 8.12256 31.5646 8.23975 32.0075C8.35693 32.4504 8.42285 32.9171 8.4375 33.4074V41H0V33.4074C0 32.9329 0.065918 32.4742 0.197754 32.0312C0.32959 31.5884 0.52002 31.1692 0.769043 30.7737C1.01807 30.3783 1.31104 30.0461 1.64795 29.7772C1.98486 29.5083 2.37305 29.2868 2.8125 29.1128V13.6667L0 12.1481L22.5 0L45 12.1481L34.7607 17.6765ZM5.625 33.4074C5.625 32.9961 5.48584 32.6402 5.20752 32.3397C4.9292 32.0392 4.59961 31.8889 4.21875 31.8889C3.83789 31.8889 3.5083 32.0392 3.22998 32.3397C2.95166 32.6402 2.8125 32.9961 2.8125 33.4074V37.963H5.625V33.4074ZM6.28418 12.1481L22.5 20.9034L38.7158 12.1481L22.5 3.39294L6.28418 12.1481ZM33.75 25.625C33.75 24.407 33.6401 23.276 33.4204 22.2321C33.2007 21.1881 32.8125 20.1204 32.2559 19.0289L22.5 24.2963L12.7441 19.0289C12.2607 19.9464 11.8945 20.9113 11.6455 21.9236C11.3965 22.936 11.2646 23.9799 11.25 25.0556V25.625L22.5 31.6991L33.75 25.625Z" fill="black"/>
</svg>
