<svg width="40" height="40" viewBox="0 0 40 40" fill="none" xmlns="http://www.w3.org/2000/svg">
<path d="M19.99 3.33301C16.6937 3.33301 13.4714 4.31049 10.7305 6.14185C7.98972 7.9732 5.85351 10.5762 4.59205 13.6216C3.33059 16.6671 3.00053 20.0182 3.64362 23.2512C4.2867 26.4842 5.87405 29.4539 8.20493 31.7848C10.5358 34.1157 13.5055 35.703 16.7385 36.3461C19.9715 36.9892 23.3227 36.6591 26.3681 35.3977C29.4135 34.1362 32.0165 32 33.8479 29.2592C35.6792 26.5184 36.6567 23.296 36.6567 19.9997C36.6567 17.811 36.2256 15.6437 35.388 13.6216C34.5505 11.5995 33.3228 9.7622 31.7752 8.21456C30.2275 6.66692 28.3902 5.43926 26.3681 4.60168C24.346 3.7641 22.1787 3.33301 19.99 3.33301ZM25.29 28.5863C25.2278 28.742 25.133 28.8826 25.012 28.9987C24.891 29.1147 24.7465 29.2035 24.5883 29.2591C24.4301 29.3146 24.2619 29.3357 24.0949 29.3209C23.9278 29.306 23.7659 29.2556 23.62 29.173L19.095 25.6563L16.1917 28.3363C16.1243 28.3861 16.0455 28.4181 15.9625 28.4295C15.8795 28.4408 15.795 28.4312 15.7167 28.4013L16.2734 23.4197L16.29 23.4347L16.3017 23.3363C16.3017 23.3363 24.4434 15.923 24.775 15.608C25.1117 15.293 25 15.2247 25 15.2247C25.02 14.8413 24.3984 15.2247 24.3984 15.2247L13.61 22.1647L9.11837 20.6347C9.11837 20.6347 8.42837 20.388 8.36337 19.843C8.29504 19.303 9.14004 19.0097 9.14004 19.0097L27.0017 11.913C27.0017 11.913 28.47 11.2597 28.47 12.343L25.29 28.5863Z" fill="white"/>
</svg>
